# xmcd CD database file
#
# Track frame offsets:
#	150
#	16130
#	32937
#	40155
#	63107
#	75477
#	108325
#	134980
#
# Disc length: 1935 seconds
#
# Revision: 3
# Processed by: cddbd v1.5.1PL2 Copyright (c) Steve Scherf et al.
# Submitted via: CDex 1.51
#
DISCID=62078d08
DTITLE=Roy Buchanan - Roy Buchanan
DYEAR=1972
DGENRE=Blues Rock
TTITLE0=Sweet Dreams
TTITLE1=I Am a Lonesome Fugitive
TTITLE2=Cajun
TTITLE3=John's Blues
TTITLE4=Haunted House
TTITLE5=Pete's Blues
TTITLE6=The Messiah Will Come Again
TTITLE7=Hey, Good Lookin'
EXTD=YEAR: 1972
EXTT0=
EXTT1=
EXTT2=
EXTT3=
EXTT4=
EXTT5=
EXTT6=
EXTT7=
PLAYORDER=
